{"accessors":[{"bufferView":0,"componentType":5126,"count":1980,"max":[1.4031667709350586,1.2279925346374512,1.7185642719268799],"min":[-1.4029951095581055,-1.4764549732208252,-2.040907144546509],"normalized":false,"type":"VEC3"},{"bufferView":1,"componentType":5126,"count":1980,"max":[0.9976699948310852,0.9793827533721924,0.9606726765632629,1.0],"min":[-0.9976651668548584,-0.9962407946586609,-0.997349739074707,-1.0],"normalized":false,"type":"VEC4"},{"bufferView":2,"componentType":5126,"count":1980,"max":[0.9995503425598145,0.9922995567321777,0.9947881698608398],"min":[-0.9995508193969727,-0.9997684359550476,-0.9314780831336975],"normalized":false,"type":"VEC3"},{"bufferView":3,"componentType":5126,"count":1980,"max":[0.9239948391914368,0.999786376953125],"min":[0.0001983672846108675,0.0001983672846108675],"normalized":false,"type":"VEC2"},{"bufferView":4,"componentType":5123,"count":2892,"max":[1979],"min":[0],"normalized":false,"type":"SCALAR"}],"asset":{"generator":"Godot Engine v4.6.stable.official@89cea143987d564363e15d207438530651d943ac","version":"2.0"},"bufferViews":[{"buffer":0,"byteLength":23760,"byteStride":12,"target":34962},{"buffer":0,"byteLength":31680,"byteOffset":23760,"byteStride":16,"target":34962},{"buffer":0,"byteLength":23760,"byteOffset":55440,"byteStride":12,"target":34962},{"buffer":0,"byteLength":15840,"byteOffset":79200,"byteStride":8,"target":34962},{"buffer":0,"byteLength":5784,"byteOffset":95040,"target":34963}],"buffers":[{"byteLength":100824,"uri":"npc0.bin"}],"extensions":{"OMI_physics_shape":{"shapes":[{"box":{"size":[1.0,1.7999999523162842,1.0]},"type":"box"}]}},"extensionsUsed":["GODOT_single_root","OMI_physics_body","OMI_physics_shape"],"materials":[{}],"meshes":[{"name":"fish2_Mesh","primitives":[{"attributes":{"NORMAL":2,"POSITION":0,"TANGENT":1,"TEXCOORD_0":3},"indices":4,"material":0,"mode":4}]}],"nodes":[{"children":[1,2],"extensions":{"OMI_physics_body":{"motion":{"type":"static"}}},"name":"NPC"},{"mesh":0,"name":"MeshInstance3D","rotation":[-0.38112324476242065,-0.019775843247771263,-0.009674820117652416,0.9242621064186096],"scale":[0.4597594439983368,0.45975950360298157,0.45975950360298157],"translation":[0.0,0.0,0.30398714542388916]},{"extensions":{"OMI_physics_body":{"collider":{"shape":0}}},"name":"CollisionShape3D"}],"scene":0,"scenes":[{"nodes":[0]}]}